<svg id="ep0zi8pe9pul1" xmlns="http://www.w3.org/2000/svg" xmlns:xlink="http://www.w3.org/1999/xlink" viewBox="0 0 336.660000 67.080000" shape-rendering="geometricPrecision" text-rendering="geometricPrecision"><style><![CDATA[#ep0zi8pe9pul2_ts {animation: ep0zi8pe9pul2_ts__ts 3000ms linear 1 normal forwards}@keyframes ep0zi8pe9pul2_ts__ts { 0% {transform: translate(168.334997px,60.365002px) scale(0,1)} 70% {transform: translate(168.334997px,60.365002px) scale(0,1);animation-timing-function: cubic-bezier(0.420000,0,0.580000,1)} 80% {transform: translate(168.334997px,60.365002px) scale(1,1)} 100% {transform: translate(168.334997px,60.365002px) scale(1,1)} }#ep0zi8pe9pul3_ts {animation: ep0zi8pe9pul3_ts__ts 3000ms linear 1 normal forwards}@keyframes ep0zi8pe9pul3_ts__ts { 0% {transform: translate(168.334997px,65.875004px) scale(0,1)} 80% {transform: translate(168.334997px,65.875004px) scale(0,1);animation-timing-function: cubic-bezier(0.420000,0,0.580000,1)} 90% {transform: translate(168.334997px,65.875004px) scale(1,1)} 100% {transform: translate(168.334997px,65.875004px) scale(1,1)} }#ep0zi8pe9pul4_ts {animation: ep0zi8pe9pul4_ts__ts 3000ms linear 1 normal forwards}@keyframes ep0zi8pe9pul4_ts__ts { 0% {transform: translate(0px,0px) scale(1,0)} 36.666667% {transform: translate(0px,0px) scale(1,0);animation-timing-function: cubic-bezier(0.420000,0,0.580000,1)} 46.666667% {transform: translate(0px,0px) scale(1,1)} 100% {transform: translate(0px,0px) scale(1,1)} }#ep0zi8pe9pul5_ts {animation: ep0zi8pe9pul5_ts__ts 3000ms linear 1 normal forwards}@keyframes ep0zi8pe9pul5_ts__ts { 0% {transform: translate(0px,0px) scale(1,0)} 46.666667% {transform: translate(0px,0px) scale(1,0);animation-timing-function: cubic-bezier(0.420000,0,0.580000,1)} 56.666667% {transform: translate(0px,0px) scale(1,1)} 100% {transform: translate(0px,0px) scale(1,1)} }#ep0zi8pe9pul6_ts {animation: ep0zi8pe9pul6_ts__ts 3000ms linear 1 normal forwards}@keyframes ep0zi8pe9pul6_ts__ts { 0% {transform: translate(-6.670000px,-2.460000px) scale(1,0)} 56.666667% {transform: translate(-6.670000px,-2.460000px) scale(1,0);animation-timing-function: cubic-bezier(0.420000,0,0.580000,1)} 66.666667% {transform: translate(-6.670000px,-2.460000px) scale(1,1)} 100% {transform: translate(-6.670000px,-2.460000px) scale(1,1)} }#ep0zi8pe9pul7_ts {animation: ep0zi8pe9pul7_ts__ts 3000ms linear 1 normal forwards}@keyframes ep0zi8pe9pul7_ts__ts { 0% {transform: translate(0px,0px) scale(1,0)} 36.666667% {transform: translate(0px,0px) scale(1,0);animation-timing-function: cubic-bezier(0.420000,0,0.580000,1)} 46.666667% {transform: translate(0px,0px) scale(1,1)} 100% {transform: translate(0px,0px) scale(1,1)} }#ep0zi8pe9pul8_ts {animation: ep0zi8pe9pul8_ts__ts 3000ms linear 1 normal forwards}@keyframes ep0zi8pe9pul8_ts__ts { 0% {transform: translate(0px,0px) scale(1,0)} 46.666667% {transform: translate(0px,0px) scale(1,0);animation-timing-function: cubic-bezier(0.420000,0,0.580000,1)} 56.666667% {transform: translate(0px,0px) scale(1,1)} 100% {transform: translate(0px,0px) scale(1,1)} }#ep0zi8pe9pul9_ts {animation: ep0zi8pe9pul9_ts__ts 3000ms linear 1 normal forwards}@keyframes ep0zi8pe9pul9_ts__ts { 0% {transform: translate(-6.670000px,-2.460000px) scale(1,0)} 56.666667% {transform: translate(-6.670000px,-2.460000px) scale(1,0);animation-timing-function: cubic-bezier(0.420000,0,0.580000,1)} 66.666667% {transform: translate(-6.670000px,-2.460000px) scale(1,1)} 100% {transform: translate(-6.670000px,-2.460000px) scale(1,1)} }#ep0zi8pe9pul11 {animation: ep0zi8pe9pul11_c_o 3000ms linear 1 normal forwards}@keyframes ep0zi8pe9pul11_c_o { 0% {opacity: 0} 46.666667% {opacity: 1} 100% {opacity: 1} }#ep0zi8pe9pul12 {animation: ep0zi8pe9pul12_c_o 3000ms linear 1 normal forwards}@keyframes ep0zi8pe9pul12_c_o { 0% {opacity: 0} 46.666667% {opacity: 1} 100% {opacity: 1} }#ep0zi8pe9pul13 {animation: ep0zi8pe9pul13_c_o 3000ms linear 1 normal forwards}@keyframes ep0zi8pe9pul13_c_o { 0% {opacity: 0} 23.333333% {opacity: 0} 70% {opacity: 1} 100% {opacity: 1} }#ep0zi8pe9pul14 {animation: ep0zi8pe9pul14_c_o 3000ms linear 1 normal forwards}@keyframes ep0zi8pe9pul14_c_o { 0% {opacity: 0} 23.333333% {opacity: 0} 70% {opacity: 1} 100% {opacity: 1} }#ep0zi8pe9pul15 {animation: ep0zi8pe9pul15_c_o 3000ms linear 1 normal forwards}@keyframes ep0zi8pe9pul15_c_o { 0% {opacity: 0} 23.333333% {opacity: 0} 70% {opacity: 1} 100% {opacity: 1} }#ep0zi8pe9pul16 {animation: ep0zi8pe9pul16_c_o 3000ms linear 1 normal forwards}@keyframes ep0zi8pe9pul16_c_o { 0% {opacity: 0} 46.666667% {opacity: 1} 100% {opacity: 1} }#ep0zi8pe9pul17 {animation: ep0zi8pe9pul17_c_o 3000ms linear 1 normal forwards}@keyframes ep0zi8pe9pul17_c_o { 0% {opacity: 0} 46.666667% {opacity: 1} 100% {opacity: 1} }#ep0zi8pe9pul18 {animation: ep0zi8pe9pul18_c_o 3000ms linear 1 normal forwards}@keyframes ep0zi8pe9pul18_c_o { 0% {opacity: 0} 23.333333% {opacity: 0} 70% {opacity: 1} 100% {opacity: 1} }#ep0zi8pe9pul19 {animation: ep0zi8pe9pul19_c_o 3000ms linear 1 normal forwards}@keyframes ep0zi8pe9pul19_c_o { 0% {opacity: 0} 23.333333% {opacity: 0} 70% {opacity: 1} 100% {opacity: 1} }#ep0zi8pe9pul20 {animation: ep0zi8pe9pul20_c_o 3000ms linear 1 normal forwards}@keyframes ep0zi8pe9pul20_c_o { 0% {opacity: 0} 46.666667% {opacity: 1} 100% {opacity: 1} }#ep0zi8pe9pul21 {animation: ep0zi8pe9pul21_c_o 3000ms linear 1 normal forwards}@keyframes ep0zi8pe9pul21_c_o { 0% {opacity: 0} 23.333333% {opacity: 0} 70% {opacity: 1} 100% {opacity: 1} }#ep0zi8pe9pul22 {animation: ep0zi8pe9pul22_c_o 3000ms linear 1 normal forwards}@keyframes ep0zi8pe9pul22_c_o { 0% {opacity: 0} 23.333333% {opacity: 0} 70% {opacity: 1} 100% {opacity: 1} }#ep0zi8pe9pul23 {animation: ep0zi8pe9pul23_c_o 3000ms linear 1 normal forwards}@keyframes ep0zi8pe9pul23_c_o { 0% {opacity: 0} 46.666667% {opacity: 1} 100% {opacity: 1} }#ep0zi8pe9pul24 {animation: ep0zi8pe9pul24_c_o 3000ms linear 1 normal forwards}@keyframes ep0zi8pe9pul24_c_o { 0% {opacity: 0} 46.666667% {opacity: 1} 100% {opacity: 1} }#ep0zi8pe9pul25 {animation: ep0zi8pe9pul25_c_o 3000ms linear 1 normal forwards}@keyframes ep0zi8pe9pul25_c_o { 0% {opacity: 0} 46.666667% {opacity: 1} 100% {opacity: 1} }#ep0zi8pe9pul26 {animation: ep0zi8pe9pul26_c_o 3000ms linear 1 normal forwards}@keyframes ep0zi8pe9pul26_c_o { 0% {opacity: 0} 46.666667% {opacity: 1} 100% {opacity: 1} }#ep0zi8pe9pul27 {animation: ep0zi8pe9pul27_c_o 3000ms linear 1 normal forwards}@keyframes ep0zi8pe9pul27_c_o { 0% {opacity: 0} 46.666667% {opacity: 1} 100% {opacity: 1} }#ep0zi8pe9pul28 {animation: ep0zi8pe9pul28_c_o 3000ms linear 1 normal forwards}@keyframes ep0zi8pe9pul28_c_o { 0% {opacity: 0} 46.666667% {opacity: 1} 100% {opacity: 1} }#ep0zi8pe9pul29 {animation: ep0zi8pe9pul29_c_o 3000ms linear 1 normal forwards}@keyframes ep0zi8pe9pul29_c_o { 0% {opacity: 0} 46.666667% {opacity: 1} 100% {opacity: 1} }#ep0zi8pe9pul30 {animation: ep0zi8pe9pul30_c_o 3000ms linear 1 normal forwards}@keyframes ep0zi8pe9pul30_c_o { 0% {opacity: 0} 46.666667% {opacity: 1} 100% {opacity: 1} }#ep0zi8pe9pul31 {animation: ep0zi8pe9pul31_c_o 3000ms linear 1 normal forwards}@keyframes ep0zi8pe9pul31_c_o { 0% {opacity: 0} 46.666667% {opacity: 1} 100% {opacity: 1} }#ep0zi8pe9pul32 {animation: ep0zi8pe9pul32_c_o 3000ms linear 1 normal forwards}@keyframes ep0zi8pe9pul32_c_o { 0% {opacity: 0} 46.666667% {opacity: 1} 100% {opacity: 1} }#ep0zi8pe9pul33 {animation: ep0zi8pe9pul33_c_o 3000ms linear 1 normal forwards}@keyframes ep0zi8pe9pul33_c_o { 0% {opacity: 0} 46.666667% {opacity: 1} 100% {opacity: 1} }#ep0zi8pe9pul34 {animation: ep0zi8pe9pul34_c_o 3000ms linear 1 normal forwards}@keyframes ep0zi8pe9pul34_c_o { 0% {opacity: 0} 46.666667% {opacity: 1} 100% {opacity: 1} }#ep0zi8pe9pul35 {animation: ep0zi8pe9pul35_c_o 3000ms linear 1 normal forwards}@keyframes ep0zi8pe9pul35_c_o { 0% {opacity: 0} 46.666667% {opacity: 1} 100% {opacity: 1} }#ep0zi8pe9pul36 {animation: ep0zi8pe9pul36_c_o 3000ms linear 1 normal forwards}@keyframes ep0zi8pe9pul36_c_o { 0% {opacity: 0} 46.666667% {opacity: 1} 100% {opacity: 1} }#ep0zi8pe9pul37 {animation: ep0zi8pe9pul37_c_o 3000ms linear 1 normal forwards}@keyframes ep0zi8pe9pul37_c_o { 0% {opacity: 0} 46.666667% {opacity: 1} 100% {opacity: 1} }#ep0zi8pe9pul38 {animation: ep0zi8pe9pul38_c_o 3000ms linear 1 normal forwards}@keyframes ep0zi8pe9pul38_c_o { 0% {opacity: 0} 46.666667% {opacity: 1} 100% {opacity: 1} }#ep0zi8pe9pul39 {animation: ep0zi8pe9pul39_c_o 3000ms linear 1 normal forwards}@keyframes ep0zi8pe9pul39_c_o { 0% {opacity: 0} 46.666667% {opacity: 1} 100% {opacity: 1} }#ep0zi8pe9pul40 {animation: ep0zi8pe9pul40_c_o 3000ms linear 1 normal forwards}@keyframes ep0zi8pe9pul40_c_o { 0% {opacity: 0} 46.666667% {opacity: 1} 100% {opacity: 1} }#ep0zi8pe9pul41 {animation: ep0zi8pe9pul41_c_o 3000ms linear 1 normal forwards}@keyframes ep0zi8pe9pul41_c_o { 0% {opacity: 0} 46.666667% {opacity: 1} 100% {opacity: 1} }#ep0zi8pe9pul42 {animation: ep0zi8pe9pul42_c_o 3000ms linear 1 normal forwards}@keyframes ep0zi8pe9pul42_c_o { 0% {opacity: 0} 23.333333% {opacity: 0} 70% {opacity: 1} 100% {opacity: 1} }#ep0zi8pe9pul43 {animation: ep0zi8pe9pul43_c_o 3000ms linear 1 normal forwards}@keyframes ep0zi8pe9pul43_c_o { 0% {opacity: 0} 23.333333% {opacity: 0} 70% {opacity: 1} 100% {opacity: 1} }]]></style><g id="ep0zi8pe9pul2_ts" transform="translate(168.334997,60.365002) scale(0,1)"><rect id="ep0zi8pe9pul2" width="336.649994" height="2.430000" rx="0" ry="0" transform="translate(-168.324997,-1.215000)" fill="rgb(246,137,56)" stroke="none" stroke-width="1"/></g><g id="ep0zi8pe9pul3_ts" transform="translate(168.334997,65.875004) scale(0,1)"><rect id="ep0zi8pe9pul3" width="336.649994" height="2.430000" rx="0" ry="0" transform="translate(-168.324997,-1.215000)" fill="rgb(0,0,0)" stroke="none" stroke-width="1"/></g><g id="ep0zi8pe9pul4_ts" transform="translate(0,0) scale(1,0)"><polygon id="ep0zi8pe9pul4" points="66.400000,50.850000 65.110000,48.900000 65.110000,20.880000 66.400000,18.620000 53.610000,18.620000 54.580000,20.880000 54.580000,48.900000 53.610000,50.850000 66.400000,50.850000" transform="translate(0,0)" fill="rgb(0,0,0)" stroke="none" stroke-width="1"/></g><g id="ep0zi8pe9pul5_ts" transform="translate(0,0) scale(1,0)"><polygon id="ep0zi8pe9pul5" points="83.570000,50.850000 82.430000,47.280000 82.430000,12.140000 83.240000,9.880000 70.610000,9.880000 71.750000,12.140000 71.750000,47.280000 70.940000,50.850000 83.570000,50.850000" transform="translate(0,0)" fill="rgb(0,0,0)" stroke="none" stroke-width="1"/></g><g id="ep0zi8pe9pul6_ts" transform="translate(-6.670000,-2.460000) scale(1,0)"><path id="ep0zi8pe9pul6" d="M107.560000,53.300000C107.240000,51.520000,106.750000,49.740000,106.560000,47.800000L106.560000,7.800000C106.786294,6.001612,107.120227,4.218411,107.560000,2.460000L94.930000,2.460000C95.374603,4.217353,95.708591,6.000851,95.930000,7.800000L95.930000,47.800000C95.693140,49.649569,95.359347,51.485429,94.930000,53.300000Z" transform="translate(0,0)" fill="rgb(0,0,0)" stroke="none" stroke-width="1"/></g><g id="ep0zi8pe9pul7_ts" transform="translate(0,0) scale(1,0)"><polygon id="ep0zi8pe9pul7" points="34.490000,50.850000 35.790000,48.900000 35.790000,20.880000 34.490000,18.620000 47.280000,18.620000 46.310000,20.880000 46.310000,48.900000 47.280000,50.850000 34.490000,50.850000" transform="translate(0,0)" fill="rgb(246,137,56)" stroke="none" stroke-width="1"/></g><g id="ep0zi8pe9pul8_ts" transform="translate(0,0) scale(1,0)"><polygon id="ep0zi8pe9pul8" points="17.330000,50.850000 18.460000,47.280000 18.460000,12.140000 17.650000,9.880000 30.280000,9.880000 29.150000,12.140000 29.150000,47.280000 29.960000,50.850000 17.330000,50.850000" transform="translate(0,0)" fill="rgb(246,137,56)" stroke="none" stroke-width="1"/></g><g id="ep0zi8pe9pul9_ts" transform="translate(-6.670000,-2.460000) scale(1,0)"><path id="ep0zi8pe9pul9" d="M6.670000,53.300000C6.990000,51.520000,7.480000,49.740000,7.670000,47.800000L7.670000,7.800000C7.443706,6.001612,7.109773,4.218411,6.670000,2.460000L19.300000,2.460000C18.855397,4.217353,18.521409,6.000851,18.300000,7.800000L18.300000,47.800000C18.536860,49.649569,18.870653,51.485429,19.300000,53.300000Z" transform="translate(0,0)" fill="rgb(246,137,56)" stroke="none" stroke-width="1"/></g><g id="ep0zi8pe9pul10"><path id="ep0zi8pe9pul11" d="M298.470000,24.850000L290.540000,24.850000C290.913874,23.424707,291.078927,21.952701,291.030000,20.480000C290.710000,15.300000,286.660000,12.540000,281.640000,12.540000C281.470000,12.220000,281.470000,12.220000,281.150000,12.220000L271.430000,12.540000L271.430000,14.810000L275.160000,14.810000C273.700000,16.270000,272.410000,17.720000,272.410000,20.480000C272.080000,22.260000,272.890000,23.880000,272.890000,24.850000L262,24.850000L262,12.540000L259.250000,12.540000L259.250000,15.460000C257.750732,13.546671,255.429523,12.462202,253,12.540000C248.780000,12.540000,244.250000,15.300000,243.930000,20.480000C243.760000,26.630000,247.170000,27.280000,248.300000,27.280000L297.850000,27.280000C300.770000,27.280000,300.110000,25.340000,300.770000,22.100000C302.060000,18.530000,309.350000,19.830000,307.400000,25.500000C307.080000,26.790000,306.400000,26.790000,305.620000,26.630000L301.880000,24L301.550000,26.750000L305.760000,29.340000C307.060000,29.990000,310.620000,27.560000,310.140000,22.540000C308.840000,15.300000,298,16.270000,298.470000,24.850000ZM258.470000,24.850000L248.270000,24.850000C246.160000,24.040000,246,22.100000,246.490000,19.350000C247.140000,16.590000,250.050000,14.970000,252.970000,14.970000C255.701408,14.995048,258.113838,16.756122,258.970000,19.350000C259.780000,22.100000,259.780000,24.530000,258.480000,24.850000ZM286.650000,24.850000L276.650000,24.850000C274.700000,24.040000,274.380000,22.100000,274.860000,19.350000C275.680000,16.590000,278.750000,14.810000,281.670000,14.810000C284.420000,14.810000,287.820000,16.590000,288.470000,19.350000C288.920000,22.100000,288.760000,24,286.660000,24.850000Z" transform="matrix(1 0 0 1 -6.67000007629395 -2.46000003814697)" opacity="0" fill="rgb(0,0,0)" stroke="none" stroke-width="1"/><path id="ep0zi8pe9pul12" d="M337.340000,16.750000L326,16.750000C325.282030,16.750000,324.700000,17.332030,324.700000,18.050000C324.700000,18.767970,325.282030,19.350000,326,19.350000L336,19.350000C340,19.510000,340,24.850000,336,24.850000C330.170000,24.850000,323.370000,24.530000,317.550000,24.530000L317.550000,3.640000L314.790000,3.640000L314.790000,27.280000L337.300000,27.280000C343.820000,27.280000,342.520000,16.750000,337.340000,16.750000Z" transform="matrix(1 0 0 1 -6.67000007629395 -2.46000003814697)" opacity="0" fill="rgb(0,0,0)" stroke="none" stroke-width="1"/><path id="ep0zi8pe9pul13" d="M334.420000,28.570000C333.445665,28.680171,332.733752,29.542425,332.810000,30.520000C332.809983,31.410811,333.529206,32.134501,334.420000,32.140000C335.275785,32.067076,335.948490,31.377340,336,30.520000C336.021335,29.570986,335.352812,28.745910,334.420000,28.570000Z" transform="matrix(1 0 0 1 -6.67000007629395 -2.46000003814697)" opacity="0" fill="rgb(0,0,0)" stroke="none" stroke-width="1"/><path id="ep0zi8pe9pul14" d="M254.760000,9.140000C255.154071,9.167281,255.540533,9.021878,255.818889,8.741602C256.097245,8.461327,256.239988,8.073874,256.210000,7.680000C256.240377,7.286908,256.097394,6.900180,255.818607,6.621393C255.539820,6.342606,255.153092,6.199623,254.760000,6.230000C253.760000,6.230000,252.980000,6.710000,252.980000,7.680000C252.980000,8.650000,253.780000,9.140000,254.760000,9.140000Z" transform="matrix(1 0 0 1 -6.67000007629395 -2.46000003814697)" opacity="0" fill="rgb(0,0,0)" stroke="none" stroke-width="1"/><path id="ep0zi8pe9pul15" d="M214.270000,28.570000C213.460000,28.570000,212.820000,29.570000,212.820000,30.520000C212.800955,31.357715,213.435304,32.066436,214.270000,32.140000C215.197657,32.148963,215.976654,31.443949,216.060000,30.520000C216.040341,29.511653,215.272984,28.675705,214.270000,28.570000Z" transform="matrix(1 0 0 1 -6.67000007629395 -2.46000003814697)" opacity="0" fill="rgb(0,0,0)" stroke="none" stroke-width="1"/><path id="ep0zi8pe9pul16" d="M226.090000,24.530000L214.270000,24.530000L214.270000,16.270000L211.680000,16.270000L211.680000,24.530000L200.180000,24.530000L200.180000,22.530000C198.890000,15.250000,188.180000,16.220000,188.530000,24.800000L174,24.800000L174,3.640000L171.200000,3.640000L171.360000,27.280000L188,27.280000C191.240000,27.280000,190.270000,25.340000,191.240000,22.100000C192.240000,18.530000,199.180000,19.830000,197.390000,25.500000C197.070000,26.790000,196.390000,26.790000,195.770000,26.630000L192.090000,24L191.760000,26.750000L196.140000,29.340000C196.620000,29.830000,198.400000,28.860000,199.380000,27.240000L228.850000,27.240000L228.850000,3.640000L226.090000,3.640000Z" transform="matrix(1 0 0 1 -6.67000007629395 -2.46000003814697)" opacity="0" fill="rgb(0,0,0)" stroke="none" stroke-width="1"/><polygon id="ep0zi8pe9pul17" points="225.740000,24.820000 228.170000,24.820000 228.170000,1.180000 225.410000,1.180000 225.740000,24.820000" opacity="0" fill="rgb(0,0,0)" stroke="none" stroke-width="1"/><path id="ep0zi8pe9pul18" d="M251,9.140000C251.548618,9.185521,252.076200,8.918582,252.364501,8.449608C252.652802,7.980634,252.652802,7.389366,252.364501,6.920392C252.076200,6.451418,251.548618,6.184479,251,6.230000C250,6.230000,249.220000,6.710000,249.220000,7.680000C249.220000,8.650000,250.060000,9.140000,251,9.140000Z" transform="matrix(1 0 0 1 -6.67000007629395 -2.46000003814697)" opacity="0" fill="rgb(0,0,0)" stroke="none" stroke-width="1"/><path id="ep0zi8pe9pul19" d="M210.710000,28.570000C209.710967,28.680382,208.949048,29.515068,208.930000,30.520000C209.008411,31.442387,209.784326,32.148557,210.710000,32.140000C211.579475,32.081845,212.271845,31.389475,212.330000,30.520000C212.323531,29.567060,211.645607,28.751041,210.710000,28.570000Z" transform="matrix(1 0 0 1 -6.67000007629395 -2.46000003814697)" opacity="0" fill="rgb(0,0,0)" stroke="none" stroke-width="1"/><path id="ep0zi8pe9pul20" d="M157.110000,24.850000L142.050000,24.850000L142.050000,12.540000L139.460000,12.540000L139.460000,15.460000C137.948128,13.529201,135.600364,12.442756,133.150000,12.540000C128.940000,12.540000,124.400000,15.300000,124.080000,20.480000C123.920000,26.630000,127.480000,27.280000,128.450000,27.280000L156.300000,27.280000C159.540000,27.280000,158.890000,25.340000,159.540000,22.100000C160.670000,18.530000,167.960000,19.830000,166.180000,25.500000C165.690000,26.790000,164.890000,26.790000,164.400000,26.630000L160.350000,24L160,26.790000L164.530000,29.380000C165.830000,30.030000,169.390000,27.600000,168.580000,22.580000C167.320000,15.300000,156.630000,16.270000,157.110000,24.850000ZM138.650000,24.850000L128.450000,24.850000C126.340000,24.040000,126.180000,22.100000,126.670000,19.350000C127.480000,16.590000,130.400000,14.970000,133.150000,14.970000C135.904876,15.028739,138.343798,16.765727,139.300000,19.350000C140,22.100000,140.270000,24.530000,138.650000,24.850000Z" transform="matrix(1 0 0 1 -6.67000007629395 -2.46000003814697)" opacity="0" fill="rgb(0,0,0)" stroke="none" stroke-width="1"/><path id="ep0zi8pe9pul21" d="M134.440000,9.140000C134.842146,9.197649,135.247954,9.062489,135.535222,8.775222C135.822489,8.487954,135.957649,8.082146,135.900000,7.680000C135.958546,7.278501,135.823265,6.873021,135.535376,6.587104C135.247487,6.301187,134.841087,6.168696,134.440000,6.230000C133.964095,6.217088,133.501710,6.389138,133.150000,6.710000C132.980000,6.870000,132.980000,7.520000,132.980000,7.710000C132.953569,7.994173,133.012775,8.279755,133.150000,8.530000C133.445858,8.942398,133.933527,9.173001,134.440000,9.140000Z" transform="matrix(1 0 0 1 -6.67000007629395 -2.46000003814697)" opacity="0" fill="rgb(0,0,0)" stroke="none" stroke-width="1"/><path id="ep0zi8pe9pul22" d="M130.720000,9.140000C131.720000,9.140000,132.500000,8.660000,132.500000,7.680000C132.500000,6.700000,131.690000,6.230000,130.720000,6.230000C130.171382,6.184479,129.643800,6.451418,129.355499,6.920392C129.067198,7.389366,129.067198,7.980634,129.355499,8.449608C129.643800,8.918582,130.171382,9.185521,130.720000,9.140000Z" transform="matrix(1 0 0 1 -6.67000007629395 -2.46000003814697)" opacity="0" fill="rgb(0,0,0)" stroke="none" stroke-width="1"/><path id="ep0zi8pe9pul23" d="M306.570000,44.120000C306.090000,44.440000,305.760000,45.250000,305.280000,45.900000L305.280000,44L303,44L303,54L305.270000,54L305.270000,48.490000C305.257222,47.711404,305.547687,46.958347,306.080000,46.390000C306.544029,45.914561,307.198789,45.675463,307.860000,45.740000C308.068035,45.812648,308.282253,45.866202,308.500000,45.900000L309.320000,43.630000L308.320000,43.630000C307.550000,43.630000,307.060000,43.630000,306.570000,44.120000Z" transform="matrix(1 0 0 1 -6.67000007629395 -2.46000003814697)" opacity="0" fill="rgb(0,0,0)" stroke="none" stroke-width="1"/><path id="ep0zi8pe9pul24" d="M313.860000,45.420000C314.159278,45.427861,314.446157,45.541196,314.670000,45.740000C315.160000,45.900000,315.320000,46.220000,315.670000,46.390000L317.130000,45.250000C316.305711,44.304096,315.141297,43.721888,313.890000,43.630000C313.057484,43.599080,312.244884,43.889039,311.620000,44.440000C310.933600,44.862387,310.546070,45.637448,310.620000,46.440000C310.582827,47.071107,310.755076,47.696830,311.110000,48.220000C311.840483,48.876759,312.735719,49.322649,313.700000,49.510000C314.830000,50.320000,315.320000,50.810000,315.320000,51.290000C315.254125,51.608100,315.081176,51.893996,314.830000,52.100000C314.544866,52.423141,314.130767,52.602706,313.700000,52.590000C312.966648,52.500954,312.312628,52.085761,311.920000,51.460000L310.140000,52.270000C310.884852,53.537350,312.230487,54.331124,313.700000,54.370000C314.573044,54.350621,315.419937,54.068324,316.130000,53.560000C316.788803,52.993004,317.156294,52.158801,317.130000,51.290000C317.178799,50.556875,317.008220,49.825821,316.640000,49.190000C315.994779,48.593030,315.200013,48.181825,314.340000,48C313.050000,47.510000,312.400000,46.860000,312.400000,46.380000C312.400000,45.900000,312.890000,45.420000,313.860000,45.420000Z" transform="matrix(1 0 0 1 -6.67000007629395 -2.46000003814697)" opacity="0" fill="rgb(0,0,0)" stroke="none" stroke-width="1"/><rect id="ep0zi8pe9pul25" width="1.940000" height="10.040000" rx="0" ry="0" transform="matrix(1 0 0 1 312.52999877929688 41.50000000000000)" opacity="0" fill="rgb(0,0,0)" stroke="none" stroke-width="1"/><polygon id="ep0zi8pe9pul26" points="319.980000,38.420000 318.200000,38.420000 318.200000,41.500000 316.260000,41.500000 316.260000,43.440000 318.200000,43.440000 318.200000,51.540000 319.980000,51.540000 319.980000,43.440000 322.250000,43.440000 322.250000,41.500000 319.980000,41.500000 319.980000,38.420000" opacity="0" fill="rgb(0,0,0)" stroke="none" stroke-width="1"/><polygon id="ep0zi8pe9pul27" points="332.610000,41.500000 330.020000,46.680000 326.300000,41.500000 324.030000,41.500000 329.050000,48.950000 325.810000,56.240000 327.750000,56.240000 334.880000,41.500000 332.610000,41.500000" opacity="0" fill="rgb(0,0,0)" stroke="none" stroke-width="1"/><path id="ep0zi8pe9pul28" d="M301.070000,49.140000C301.107478,47.702849,300.583809,46.307593,299.610000,45.250000C298.615312,44.163292,297.192007,43.570553,295.720000,43.630000C294.319615,43.650991,292.985425,44.229599,292.013085,45.237604C291.040746,46.245609,290.510554,47.599767,290.540000,49C290.508121,50.379697,291.034566,51.713837,292,52.700000C293.010457,53.661342,294.327884,54.235060,295.720000,54.320000C297.604913,54.360536,299.401315,53.521476,300.580000,52.050000L299,50.920000C298.461053,52.012400,297.302443,52.657399,296.090000,52.540000L295.760000,52.540000C295.043171,52.485160,294.363000,52.201171,293.820000,51.730000C293.161696,50.999243,292.712601,50.104508,292.520000,49.140000L301.110000,49.140000ZM295.720000,45.740000C297.350000,45.740000,298.470000,46.220000,298.800000,47.680000L292.800000,47.680000C293.188270,46.421319,294.409210,45.610146,295.720000,45.740000Z" transform="matrix(1 0 0 1 -6.67000007629395 -2.46000003814697)" opacity="0" fill="rgb(0,0,0)" stroke="none" stroke-width="1"/><path id="ep0zi8pe9pul29" d="M238.400000,43.630000C237.713266,43.514894,237.009708,43.692597,236.460000,44.120000C235.877853,44.498024,235.335131,44.933541,234.840000,45.420000L234.840000,38.130000L232.570000,38.130000L232.570000,54L234.840000,54L234.840000,48.490000C234.827222,47.711404,235.117687,46.958347,235.650000,46.390000C236.109336,45.777084,236.824290,45.408551,237.590000,45.390000C238.066689,45.389963,238.527716,45.560189,238.890000,45.870000C239.214806,46.346834,239.382615,46.913189,239.370000,47.490000L239.370000,54L241.640000,54L241.640000,46.870000C241.583556,46.019385,241.229541,45.215770,240.640000,44.600000C240.031951,44.021319,239.238055,43.677534,238.400000,43.630000Z" transform="matrix(1 0 0 1 -6.67000007629395 -2.46000003814697)" opacity="0" fill="rgb(0,0,0)" stroke="none" stroke-width="1"/><path id="ep0zi8pe9pul30" d="M259.780000,48.490000C259.874763,49.560972,259.511410,50.621964,258.780000,51.410000C257.964514,52.207039,256.847621,52.618143,255.710000,52.540000C254.632083,52.601606,253.596540,52.112076,252.960000,51.240000C252.302898,50.289902,251.966544,49.154708,252,48L252,38.450000L249.740000,38.450000L249.740000,47.680000C249.740000,49.950000,250.220000,51.680000,251.520000,52.680000C252.520000,53.980000,253.950000,54.460000,256.050000,54.460000C257.661910,54.602983,259.239561,53.935947,260.260000,52.680000C261.428286,51.475270,262.056401,49.847226,262,48.170000L262,38.450000L259.740000,38.450000Z" transform="matrix(1 0 0 1 -6.67000007629395 -2.46000003814697)" opacity="0" fill="rgb(0,0,0)" stroke="none" stroke-width="1"/><path id="ep0zi8pe9pul31" d="M269.330000,43.630000C268.794206,43.563456,268.257167,43.743695,267.870000,44.120000C267.161119,44.517509,266.552324,45.071581,266.090000,45.740000L266.090000,44L264.150000,44L264.150000,54L266.090000,54L266.090000,48.490000C266.070993,47.670929,266.442142,46.891516,267.090000,46.390000C267.431016,45.731712,268.130396,45.338801,268.870000,45.390000C269.333592,45.451516,269.777670,45.615483,270.170000,45.870000C270.446758,46.368310,270.610623,46.921354,270.650000,47.490000L270.650000,54L272.920000,54L272.920000,46.710000C272.801817,45.875754,272.455792,45.090277,271.920000,44.440000C271.147846,43.936400,270.251496,43.656074,269.330000,43.630000Z" transform="matrix(1 0 0 1 -6.67000007629395 -2.46000003814697)" opacity="0" fill="rgb(0,0,0)" stroke="none" stroke-width="1"/><rect id="ep0zi8pe9pul32" width="1.950000" height="10.040000" rx="0" ry="0" transform="matrix(1 0 0 1 268.48999023437500 41.50000000000000)" opacity="0" fill="rgb(0,0,0)" stroke="none" stroke-width="1"/><polygon id="ep0zi8pe9pul33" points="277.560000,47.010000 274.810000,41.500000 272.540000,41.500000 277.560000,52.020000 282.740000,41.500000 280.470000,41.500000 277.560000,47.010000" opacity="0" fill="rgb(0,0,0)" stroke="none" stroke-width="1"/><path id="ep0zi8pe9pul34" d="M228.690000,45.900000C228.137410,45.267276,227.542724,44.672590,226.910000,44.120000C226.420000,43.960000,226.090000,43.630000,225.610000,43.630000L224.610000,43.630000C223.298154,43.651196,222.060567,44.242609,221.220000,45.250000C219.788579,46.738975,219.337991,48.916956,220.061109,50.851669C220.784227,52.786382,222.552878,54.134901,224.610000,54.320000L225.610000,54.320000C226.792394,53.801262,227.844500,53.025845,228.690000,52.050000L228.690000,54.050000L230.630000,54.050000L230.630000,44L228.690000,44ZM227.880000,51.410000C227.272641,52.032189,226.472558,52.430468,225.610000,52.540000C224.634861,52.479157,223.711642,52.079449,223,51.410000C222.343622,50.774054,221.981351,49.893735,222,48.980000C221.948828,48.106537,222.320965,47.261786,223,46.710000C223.671950,46.008520,224.620990,45.642095,225.590000,45.710000C226.459367,45.680783,227.294779,46.048805,227.860000,46.710000C228.598053,47.214796,228.985678,48.094706,228.860000,48.980000C228.959465,49.902808,228.591834,50.814383,227.880000,51.410000Z" transform="matrix(1 0 0 1 -6.67000007629395 -2.46000003814697)" opacity="0" fill="rgb(0,0,0)" stroke="none" stroke-width="1"/><path id="ep0zi8pe9pul35" d="M214.760000,43.630000C214.125717,43.558165,213.488160,43.733673,212.980000,44.120000C212.375958,44.541365,211.876509,45.095549,211.520000,45.740000C211.200000,44.930000,211.030000,44.440000,210.520000,44.120000C210.021134,43.715250,209.375727,43.537581,208.740000,43.630000C208.135488,43.566629,207.526424,43.696143,207,44C206.609695,44.523338,206.174731,45.011836,205.700000,45.460000L205.700000,44L203.440000,44L203.440000,54L205.700000,54L205.700000,48.170000C205.778647,47.485392,205.943278,46.813429,206.190000,46.170000C206.636871,45.654619,207.287910,45.362017,207.970000,45.370000C208.970000,45.370000,209.420000,46.170000,209.420000,47.470000L209.420000,54L211.690000,54L211.690000,48.490000C211.685399,47.712879,211.974737,46.962744,212.500000,46.390000C212.786767,45.831678,213.335780,45.455642,213.960000,45.390000C214.439666,45.363697,214.907861,45.542769,215.247546,45.882454C215.587231,46.222139,215.766303,46.690334,215.740000,47.170000L215.740000,54L217.840000,54L217.840000,46.710000C217.792675,45.893044,217.515343,45.106113,217.040000,44.440000C216.370881,43.961754,215.580871,43.681092,214.760000,43.630000Z" transform="matrix(1 0 0 1 -6.67000007629395 -2.46000003814697)" opacity="0" fill="rgb(0,0,0)" stroke="none" stroke-width="1"/><path id="ep0zi8pe9pul36" d="M199.220000,45.900000C198.751938,45.190009,198.142602,44.584077,197.430000,44.120000C197.017812,43.913155,196.585567,43.748969,196.140000,43.630000L195.330000,43.630000C194.053360,43.622008,192.849591,44.223893,192.090000,45.250000C191.056032,46.212849,190.468786,47.562142,190.468786,48.975000C190.468786,50.387858,191.056032,51.737151,192.090000,52.700000C192.849591,53.726107,194.053360,54.327992,195.330000,54.320000L196.140000,54.320000C197.345431,53.841939,198.406535,53.059891,199.220000,52.050000L199.220000,54.050000L201.150000,54.050000L201.150000,44L199.220000,44ZM198.400000,51.410000C197.797617,52.033431,197.000175,52.432152,196.140000,52.540000C195.257807,52.500421,194.433381,52.090024,193.870000,51.410000C193.125362,50.836084,192.701348,49.939705,192.730000,49C192.661991,48.090939,193.100222,47.218322,193.870000,46.730000C194.415421,46.042671,195.264713,45.668534,196.140000,45.730000C197.006768,45.699413,197.839701,46.067967,198.400000,46.730000C199.139954,47.233215,199.528128,48.114370,199.400000,49C199.491410,49.920126,199.115988,50.824894,198.400000,51.410000Z" transform="matrix(1 0 0 1 -6.67000007629395 -2.46000003814697)" opacity="0" fill="rgb(0,0,0)" stroke="none" stroke-width="1"/><path id="ep0zi8pe9pul37" d="M185.770000,43.630000C184.960000,43.630000,184.480000,43.630000,184,44.120000C183.392555,44.540472,182.889658,45.094684,182.530000,45.740000C182.275360,45.124395,181.889767,44.571597,181.400000,44.120000C180.850292,43.692597,180.146734,43.514894,179.460000,43.630000C178.946112,43.592030,178.433780,43.721868,178,44C177.494073,44.523192,176.952799,45.011008,176.380000,45.460000L176.380000,44L174.440000,44L174.440000,54L176.380000,54L176.380000,48.170000C176.427104,47.433393,176.711252,46.731791,177.190000,46.170000C177.638517,45.656838,178.288476,45.364722,178.970000,45.370000C179.970000,45.370000,180.430000,46.170000,180.430000,47.470000L180.430000,54L182.700000,54L182.700000,48.490000C182.746033,47.768743,182.908115,47.059634,183.180000,46.390000C183.627606,45.846043,184.262592,45.489309,184.960000,45.390000C185.415858,45.396868,185.848558,45.592046,186.155425,45.929220C186.462291,46.266395,186.615972,46.715512,186.580000,47.170000L186.580000,54L188.850000,54L188.850000,46.710000C188.819317,45.825528,188.407205,44.997657,187.720000,44.440000C187.204954,43.919380,186.502333,43.627522,185.770000,43.630000Z" transform="matrix(1 0 0 1 -6.67000007629395 -2.46000003814697)" opacity="0" fill="rgb(0,0,0)" stroke="none" stroke-width="1"/><polygon id="ep0zi8pe9pul38" points="156.760000,35.990000 155.630000,35.990000 154.170000,35.990000 150.440000,42.150000 146.720000,35.990000 144.130000,35.990000 149.470000,44.410000 149.470000,51.540000 151.410000,51.540000 151.410000,44.410000 155.630000,37.450000 156.760000,35.990000" opacity="0" fill="rgb(0,0,0)" stroke="none" stroke-width="1"/><path id="ep0zi8pe9pul39" d="M170.230000,45.900000C169.677410,45.267276,169.082724,44.672590,168.450000,44.120000C167.934671,43.884085,167.389692,43.719245,166.830000,43.630000L166.180000,43.630000C164.888051,43.551951,163.652730,44.169611,162.940000,45.250000C162.704860,45.387267,162.486692,45.551731,162.290000,45.740000C160.997681,47.706703,160.997681,50.253297,162.290000,52.220000C162.290000,52.540000,162.620000,52.540000,162.620000,52.700000C163.551248,53.681840,164.827978,54.262824,166.180000,54.320000L166.830000,54.320000C168.154006,53.897612,169.332309,53.110921,170.230000,52.050000L170.230000,54.050000L172.170000,54.050000L172.170000,44L170.230000,44ZM169.420000,51.410000C168.730529,52.100495,167.805128,52.504241,166.830000,52.540000C165.947807,52.500421,165.123381,52.090024,164.560000,51.410000C163.903622,50.774054,163.541351,49.893735,163.560000,48.980000C163.508828,48.106537,163.880965,47.261786,164.560000,46.710000C165.123413,46.046377,165.960061,45.677809,166.830000,45.710000C167.802910,45.614883,168.763449,45.985748,169.420000,46.710000C170.034098,47.309047,170.392471,48.122552,170.420000,48.980000C170.359391,49.877101,170.008369,50.730084,169.420000,51.410000Z" transform="matrix(1 0 0 1 -6.67000007629395 -2.46000003814697)" opacity="0" fill="rgb(0,0,0)" stroke="none" stroke-width="1"/><path id="ep0zi8pe9pul40" d="M123.920000,54L126.180000,54L128.130000,50L134.770000,50L136.710000,54L139,54L131.390000,37.640000ZM131.370000,48.170000L128.940000,48.170000L131.370000,42.660000L134,48.170000Z" transform="matrix(1 0 0 1 -6.67000007629395 -2.46000003814697)" opacity="0" fill="rgb(0,0,0)" stroke="none" stroke-width="1"/><rect id="ep0zi8pe9pul41" width="2.100000" height="15.870000" rx="0" ry="0" transform="matrix(1 0 0 1 134.25000000000000 35.66999816894531)" opacity="0" fill="rgb(0,0,0)" stroke="none" stroke-width="1"/><path id="ep0zi8pe9pul42" d="M276,38.840000C275.368132,38.840013,274.798677,39.221186,274.557816,39.805347C274.316955,40.389507,274.452265,41.061268,274.900498,41.506628C275.348731,41.951987,276.021348,42.082975,276.603948,41.838362C277.186547,41.593750,277.564050,41.021855,277.560000,40.390000C277.560009,39.977176,277.395333,39.581404,277.102486,39.290434C276.809638,38.999463,276.412815,38.837337,276,38.840000Z" transform="matrix(1 0 0 1 -6.67000007629395 -2.46000003814697)" opacity="0" fill="rgb(0,0,0)" stroke="none" stroke-width="1"/><path id="ep0zi8pe9pul43" d="M320.340000,38.840000C319.708132,38.840013,319.138677,39.221186,318.897816,39.805347C318.656955,40.389507,318.792265,41.061268,319.240498,41.506628C319.688731,41.951987,320.361348,42.082975,320.943948,41.838362C321.526547,41.593750,321.904050,41.021855,321.900000,40.390000C321.900009,39.977176,321.735333,39.581404,321.442486,39.290434C321.149638,38.999463,320.752815,38.837337,320.340000,38.840000Z" transform="matrix(1 0 0 1 -6.67000007629395 -2.46000003814697)" opacity="0" fill="rgb(0,0,0)" stroke="none" stroke-width="1"/></g></svg>